<?xml version="1.0" encoding="utf-8"?>
<!-- Generator: Adobe Illustrator 16.0.0, SVG Export Plug-In . SVG Version: 6.00 Build 0)  -->
<!DOCTYPE svg PUBLIC "-//W3C//DTD SVG 1.1//EN" "http://www.w3.org/Graphics/SVG/1.1/DTD/svg11.dtd">
<svg version="1.1" id="Layer_1" xmlns="http://www.w3.org/2000/svg" xmlns:xlink="http://www.w3.org/1999/xlink" x="0px" y="0px"
	 width="220px" height="220px" viewBox="0 0 220 220" enable-background="new 0 0 220 220" xml:space="preserve">
<path fill="#834EAC" d="M175.247,105.55c-3.805-7.908-8.913-15.069-15.046-21.202l-11.289-11.255l33.444-33.468l-11.234-11.271
	c0-0.008-0.007-0.008-0.015-0.015c-13.985-13.986-33.313-22.64-54.656-22.64c-42.69,0-77.296,34.605-77.296,77.297
	c0,11.985,2.729,23.336,7.598,33.457c3.8,7.902,8.909,15.066,15.042,21.199l0.003,0.006c0,0,0-0.006,11.282,11.276L39.62,182.393
	l11.269,11.262v0.007c13.99,13.986,33.314,22.64,54.66,22.64c42.688,0,77.296-34.612,77.296-77.297
	C182.845,127.019,180.115,115.668,175.247,105.55z M153.476,119.999H120v33.477h-18v-33.477H68.524v-18H102V68.524h18v33.475h33.476
	V119.999z"/>
</svg>
